<svg width="50" height="57" viewBox="0 0 50 57" fill="none" xmlns="http://www.w3.org/2000/svg">
<path d="M0 0.457703H50V46.2694V54.0337H0V0.457703Z" fill="url(#paint0_linear_1005:20)"/>
<path d="M18.916 41.6362H36.754V37.5502H25.63L32.272 31.6642C33.256 30.8002 34.078 30.0142 34.738 29.3062C35.41 28.5862 35.914 27.8122 36.25 26.9842C36.586 26.1442 36.754 25.1062 36.754 23.8702C36.754 22.1782 36.37 20.6842 35.602 19.3882C34.846 18.0802 33.814 17.0602 32.506 16.3282C31.198 15.5842 29.71 15.2122 28.042 15.2122C26.254 15.2122 24.676 15.5662 23.308 16.2742C21.94 16.9822 20.872 17.9782 20.104 19.2622C19.336 20.5462 18.952 22.0522 18.952 23.7802H23.416C23.392 22.9882 23.572 22.2502 23.956 21.5662C24.34 20.8822 24.874 20.3362 25.558 19.9282C26.254 19.5082 27.052 19.2982 27.952 19.2982C29.236 19.2982 30.28 19.7302 31.084 20.5942C31.9 21.4462 32.308 22.5202 32.308 23.8162C32.308 24.4522 32.134 25.1122 31.786 25.7962C31.45 26.4802 30.856 27.2062 30.004 27.9742L18.916 37.8562V41.6362Z" fill="white"/>
<defs>
<linearGradient id="paint0_linear_1005:20" x1="25" y1="0.457703" x2="25" y2="54.0337" gradientUnits="userSpaceOnUse">
<stop stop-color="#00A9A7"/>
<stop offset="1" stop-color="#00BA89"/>
</linearGradient>
</defs>
</svg>
