<svg width="50" height="57" viewBox="0 0 50 57" fill="none" xmlns="http://www.w3.org/2000/svg">
<path d="M0 0.457703H50V46.2694V54.0337H0V0.457703Z" fill="url(#paint0_linear_1005:53)"/>
<path d="M27.052 42.1582C28.672 42.1582 30.148 41.7862 31.48 41.0422C32.824 40.2862 33.892 39.2602 34.684 37.9642C35.488 36.6682 35.89 35.2042 35.89 33.5722C35.89 32.2642 35.644 31.0462 35.152 29.9182C34.66 28.7902 33.946 27.8362 33.01 27.0562C32.074 26.2762 30.94 25.7482 29.608 25.4722L35.458 19.8562V15.7522H19.564V19.8382H30.292L22.804 26.2462L24.784 29.6662C25.528 29.2582 26.278 29.0542 27.034 29.0542C28.342 29.0542 29.41 29.4862 30.238 30.3502C31.066 31.2142 31.48 32.2882 31.48 33.5722C31.48 34.8442 31.054 35.9062 30.202 36.7582C29.362 37.6102 28.306 38.0422 27.034 38.0542C26.086 38.0662 25.21 37.7962 24.406 37.2442C23.602 36.6802 23.05 35.8822 22.75 34.8502L18.556 35.9842C18.928 37.2322 19.534 38.3242 20.374 39.2602C21.226 40.1842 22.228 40.8982 23.38 41.4022C24.532 41.9062 25.756 42.1582 27.052 42.1582Z" fill="white"/>
<defs>
<linearGradient id="paint0_linear_1005:53" x1="25" y1="0.457703" x2="25" y2="54.0337" gradientUnits="userSpaceOnUse">
<stop stop-color="#00A9A7"/>
<stop offset="1" stop-color="#00BA89"/>
</linearGradient>
</defs>
</svg>
