<svg width="23" height="23" viewBox="0 0 23 23" fill="none" xmlns="http://www.w3.org/2000/svg">
<path d="M10.2469 22.2321C15.9061 22.2321 20.4938 17.7613 20.4938 12.2464C20.4938 6.73141 15.9061 2.26065 10.2469 2.26065C4.5877 2.26065 0 6.73141 0 12.2464C0 17.7613 4.5877 22.2321 10.2469 22.2321Z" fill="white"/>
<path d="M10.2469 21.7328C15.6231 21.7328 19.9815 17.4856 19.9815 12.2464C19.9815 7.00716 15.6231 2.75994 10.2469 2.75994C4.87064 2.75994 0.512329 7.00716 0.512329 12.2464C0.512329 17.4856 4.87064 21.7328 10.2469 21.7328Z" stroke="#00ADAA"/>
<path d="M4.09875 9.55023L9.83703 17.3171L21.8731 1.49475" stroke="#00ADAA" stroke-width="2" stroke-linecap="round"/>
</svg>
